<?xml version="1.0" encoding="UTF-8"?>
<svg id="_图层_1" data-name="图层 1" xmlns="http://www.w3.org/2000/svg" viewBox="0 0 60 66.4">
  <defs>
    <style>
      .cls-1 {
        fill: #00a651;
      }

      .cls-2 {
        isolation: isolate;
      }

      .cls-3 {
        fill: #fff;
      }

      .cls-4 {
        fill: #a5d6a7;
      }
    </style>
  </defs>
  <path class="cls-3" d="M12.8.18h34c3.76,0,6.8,2.22,6.8,4.97v56.29c0,2.74-3.04,4.97-6.8,4.97H12.8c-3.76,0-6.8-2.22-6.8-4.97V5.15C6,2.4,9.04.18,12.8.18Z"/>
  <path class="cls-1" d="M53.59,5.15L36.6.18v4.97h17Z"/>
  <path class="cls-4" d="M13.5,9.23h13c.83,0,1.5.67,1.5,1.5h0c0,.83-.67,1.5-1.5,1.5h-13c-.83,0-1.5-.67-1.5-1.5h0c0-.83.67-1.5,1.5-1.5Z"/>
  <path class="cls-4" d="M13.5,17.23h27c.83,0,1.5.67,1.5,1.5h0c0,.83-.67,1.5-1.5,1.5H13.5c-.83,0-1.5-.67-1.5-1.5h0c0-.83.67-1.5,1.5-1.5Z"/>
  <path class="cls-4" d="M13.5,25.23h27c.83,0,1.5.67,1.5,1.5h0c0,.83-.67,1.5-1.5,1.5H13.5c-.83,0-1.5-.67-1.5-1.5h0c0-.83.67-1.5,1.5-1.5Z"/>
  <rect class="cls-1" y="33.23" width="60" height="23"/>
  <path class="cls-1" d="M0,56.23l6,7v-7H0Z"/>
  <path class="cls-1" d="M60,56.23l-6,7v-7h6Z"/>
  <g class="cls-2">
    <path class="cls-3" d="M20.8,45.54l3.1.94c-.21.87-.54,1.6-.98,2.18-.45.58-1,1.02-1.67,1.32s-1.51.45-2.54.45c-1.25,0-2.26-.18-3.05-.54-.79-.36-1.47-1-2.04-1.91-.57-.91-.86-2.08-.86-3.5,0-1.89.5-3.35,1.51-4.37s2.43-1.53,4.28-1.53c1.44,0,2.58.29,3.4.88.83.58,1.44,1.48,1.84,2.69l-3.12.7c-.11-.35-.22-.6-.34-.77-.2-.27-.44-.48-.73-.62-.29-.15-.61-.22-.96-.22-.8,0-1.42.32-1.84.97-.32.48-.48,1.23-.48,2.25,0,1.27.19,2.14.58,2.61.39.47.93.71,1.62.71s1.19-.19,1.54-.57c.35-.38.6-.93.75-1.66Z"/>
    <path class="cls-3" d="M25,46.44l3.37-.21c.07.55.22.96.45,1.25.36.46.89.7,1.56.7.5,0,.89-.12,1.17-.36s.41-.51.41-.82-.13-.56-.39-.8c-.26-.23-.86-.46-1.81-.66-1.55-.35-2.66-.81-3.32-1.39-.67-.58-1-1.32-1-2.21,0-.59.17-1.14.51-1.67.34-.52.85-.93,1.54-1.23.68-.3,1.62-.45,2.82-.45,1.46,0,2.58.27,3.35.82.77.54,1.23,1.41,1.37,2.6l-3.34.2c-.09-.52-.27-.89-.56-1.12-.28-.23-.68-.35-1.18-.35-.41,0-.72.09-.93.26-.21.17-.31.39-.31.64,0,.18.09.35.26.49.17.15.56.29,1.19.42,1.55.33,2.65.67,3.32,1.01.67.34,1.16.76,1.46,1.27s.46,1.07.46,1.7c0,.73-.2,1.41-.61,2.03s-.97,1.09-1.7,1.41c-.73.32-1.65.48-2.76.48-1.95,0-3.3-.38-4.05-1.12s-1.17-1.7-1.27-2.86Z"/>
    <path class="cls-3" d="M36.05,38.78h3.7l2.58,8.24,2.54-8.24h3.59l-4.25,11.45h-3.84l-4.33-11.45Z"/>
  </g>
</svg>