<?xml version="1.0" encoding="UTF-8"?>
<svg id="_图层_1" data-name="图层 1" xmlns="http://www.w3.org/2000/svg" viewBox="0 0 57.92 66.31">
  <defs>
    <style>
      .cls-1, .cls-2 {
        fill: #a684b3;
      }

      .cls-2 {
        stroke-linejoin: round;
      }

      .cls-2, .cls-3 {
        stroke-width: 2.5px;
      }

      .cls-2, .cls-3, .cls-4 {
        stroke: #1a1a1a;
      }

      .cls-5 {
        isolation: isolate;
      }

      .cls-6 {
        fill: #fff;
      }

      .cls-3 {
        fill: #f0f0f0;
      }

      .cls-4 {
        fill: #7a5d8a;
      }
    </style>
  </defs>
  <path class="cls-3" d="M12.42,1.35h33.11c3.05,0,5.52,1.78,5.52,3.97v55.58c0,2.19-2.47,3.97-5.52,3.97H12.42c-3.05,0-5.52-1.78-5.52-3.97h0V5.32c0-2.19,2.47-3.97,5.52-3.97Z"/>
  <g class="cls-5">
    <path class="cls-1" d="M15.26,17.46v-1.88c.42-.02.74-.08.95-.17s.4-.25.55-.47c.16-.22.26-.5.32-.83.05-.25.07-.68.07-1.3,0-1.01.05-1.71.16-2.11s.29-.72.56-.96c.27-.24.66-.43,1.18-.57.35-.09.9-.14,1.66-.14h.46v1.87c-.64,0-1.05.03-1.23.1-.18.07-.31.16-.4.3s-.13.36-.13.68-.03.95-.08,1.87c-.03.52-.1.93-.22,1.25s-.27.58-.46.79c-.19.21-.47.42-.86.65.34.18.62.38.83.62.22.24.38.52.5.86.11.34.19.79.22,1.36.04.86.06,1.42.06,1.66,0,.34.05.58.14.72.09.14.23.24.42.31.19.07.59.11,1.21.11v1.88h-.46c-.78,0-1.37-.06-1.79-.17-.41-.11-.76-.3-1.05-.56-.28-.26-.48-.58-.57-.96s-.15-.99-.15-1.81c0-.96-.05-1.58-.14-1.87-.13-.42-.32-.71-.57-.89s-.65-.28-1.18-.31Z"/>
    <path class="cls-1" d="M22.88,20.66v-2.2h2.42v2.2h-2.42Z"/>
    <path class="cls-1" d="M27.79,20.66v-2.2h2.42v2.2h-2.42Z"/>
    <path class="cls-1" d="M32.69,20.66v-2.2h2.42v2.2h-2.42Z"/>
    <path class="cls-1" d="M42.62,17.46c-.42.02-.74.08-.95.17-.21.09-.4.25-.55.47-.15.22-.26.5-.32.83-.05.25-.07.68-.07,1.3,0,1.01-.05,1.72-.15,2.12-.1.4-.29.72-.56.96s-.67.43-1.19.57c-.35.09-.9.14-1.66.14h-.46v-1.88c.62,0,1.02-.04,1.21-.11.19-.07.33-.17.42-.3.09-.13.13-.36.14-.68,0-.32.03-.92.07-1.82.03-.54.11-.98.23-1.3.13-.33.29-.6.5-.83s.48-.43.81-.6c-.43-.25-.74-.49-.93-.73-.27-.34-.45-.78-.55-1.31-.06-.36-.11-1.17-.14-2.41,0-.39-.04-.65-.12-.78-.07-.13-.2-.23-.39-.3s-.61-.11-1.25-.11v-1.87h.46c.78,0,1.37.05,1.79.16s.76.3,1.04.56c.28.26.47.59.57.97s.15.99.15,1.81c0,.95.04,1.58.13,1.87.13.42.32.71.58.89s.65.28,1.18.31v1.88Z"/>
  </g>
  <path class="cls-2" d="M1.38,30.66h55.19v23H1.38v-23Z"/>
  <path class="cls-4" d="M1.38,53.66l5.52,7v-7H1.38Z"/>
  <path class="cls-4" d="M56.57,53.66l-5.52,7v-7h5.52Z"/>
  <g class="cls-5">
    <path class="cls-6" d="M11.1,37.64h3.43v5.44c0,1.14-.11,2.01-.34,2.61-.22.6-.67,1.1-1.35,1.52-.68.42-1.54.62-2.6.62-1.12,0-1.98-.14-2.6-.41-.61-.27-1.09-.67-1.42-1.2-.33-.53-.53-1.18-.59-1.95l3.27-.4c0,.44.05.77.13.98s.22.39.41.52c.13.09.32.13.56.13.38,0,.66-.13.84-.39.18-.26.27-.69.27-1.3v-6.17Z"/>
    <path class="cls-6" d="M16.21,44.35l3.25-.18c.07.48.21.84.43,1.09.35.41.85.61,1.51.61.49,0,.86-.1,1.13-.31.26-.21.4-.45.4-.72s-.13-.49-.38-.7-.83-.4-1.75-.58c-1.5-.31-2.57-.71-3.21-1.22-.64-.51-.97-1.15-.97-1.93,0-.51.16-1,.49-1.46.33-.46.82-.82,1.49-1.08.66-.26,1.57-.39,2.72-.39,1.41,0,2.49.24,3.23.71.74.48,1.18,1.23,1.32,2.27l-3.22.17c-.09-.45-.27-.78-.54-.98-.27-.21-.65-.31-1.14-.31-.4,0-.7.08-.9.23-.2.15-.3.34-.3.56,0,.16.08.3.25.43.16.13.54.25,1.15.37,1.49.29,2.56.59,3.21.88.65.3,1.12.67,1.41,1.11.29.44.44.94.44,1.48,0,.64-.2,1.24-.59,1.78-.39.54-.94.95-1.64,1.23-.7.28-1.59.42-2.66.42-1.88,0-3.18-.33-3.91-.98-.72-.66-1.13-1.49-1.23-2.5Z"/>
    <path class="cls-6" d="M27.54,42.66c0-1.64.5-2.91,1.51-3.82s2.41-1.37,4.2-1.37,3.26.45,4.26,1.34c1,.9,1.49,2.15,1.49,3.76,0,1.17-.22,2.13-.65,2.88-.43.75-1.06,1.33-1.89,1.75-.82.42-1.85.63-3.08.63s-2.28-.18-3.1-.54-1.48-.93-1.99-1.71-.76-1.75-.76-2.93ZM30.95,42.67c0,1.01.21,1.74.62,2.18s.98.66,1.69.66,1.3-.22,1.71-.65.6-1.21.6-2.33c0-.94-.21-1.63-.63-2.07-.42-.43-.99-.65-1.71-.65s-1.24.22-1.66.66c-.42.44-.63,1.17-.63,2.19Z"/>
    <path class="cls-6" d="M40.86,37.64h3.19l4.17,5.54v-5.54h3.22v10.02h-3.22l-4.14-5.5v5.5h-3.21v-10.02Z"/>
  </g>
</svg>