<?xml version="1.0" encoding="UTF-8"?>
<svg xmlns="http://www.w3.org/2000/svg" viewBox="0 0 1461.5714 1461.5714">
  <defs>
    <style>
      .cls-1 {
        fill: #2395db;
      }

      .cls-2 {
        fill: none;
      }

      .cls-3 {
        fill: #575755;
      }

      .cls-4 {
        fill: #585859;
      }
    </style>
  </defs>
  <g id="_图层_1" data-name="图层 1">
    <polygon class="cls-4" points="464.5415 663.1999 436.9608 585.8695 404.4037 494.1535 356.5656 627.9098 332.6623 693.3178 186.4016 693.3666 217.7174 614.5598 329.277 334.8843 486.6272 334.9681 570.9884 552.6025 611.5283 657.9402 625.4898 693.3248 475.7739 693.303 464.5415 663.1999"/>
    <polyline class="cls-4" points="274.8738 833.5691 226.33 971.0994 162.9322 1140.9383 11.9572 1140.8833 29.2151 1097.8276 133.0619 833.5691"/>
    <g>
      <rect class="cls-4" x="93.9228" y="708.3857" width="616.8934" height="108.6643" rx="22.8224" ry="22.8224"/>
      <rect class="cls-1" x="451.5175" y="708.3857" width="259.2986" height="108.6643" rx="19.6843" ry="19.6843"/>
    </g>
  </g>
  <g id="_图层_3" data-name="图层 3">
    <g>
      <path class="cls-4" d="M895.3256,970.0714l-.1045-20.9102-27.6456.093-.0015-17.7866,50.8751-.2391.0743,50.4822c-6.9581,4.3806-13.7893,8.0086-21.4588,11.0288-17.6202,6.3329-36.7045,7.3322-54.0649.5925-26.9815-10.4748-42.2477-36.007-39.4568-64.4849,3.5679-36.4071,33.368-58.5521,69.3659-56.0193,17.4848,1.0016,33.238,8.5855,44.0704,23.3107l-18.6558,14.942c-6.7769-12.0689-18.4691-17.2958-31.6784-17.3056-16.8712-.0125-31.0634,9.6435-35.7438,26.1936-1.8868,6.6718-2.0553,14.0182-1.5273,21.2539,1.3853,18.9824,15.7398,33.6236,34.5348,35.5702,11.0266,1.142,21.0098-1.2677,31.4169-6.7215Z"/>
      <path class="cls-1" d="M500.2466,967.6354l-49.1647.0597-10.843,28.7734-26.1012.036,19.0287-44.4811,31.6945-77.3619,23.954.1317,48.8506,121.4628-25.7434.2698-11.6755-28.8903ZM493.6455,948.9867l-17.7653-48.9143-17.5536,49.1892,35.319-.2749Z"/>
      <path class="cls-4" d="M932.3243,962.9163c2.8153-10.027,12.6738-15.6288,21.9033-18.1764,11.7185-3.2347,23.025-2.7154,35.3596-2.9251.5938-4.7334-.0845-10.162-2.7541-14.2001-2.9533-4.4673-8.3583-5.9565-13.4746-5.7519-8.2818.3312-14.8507,3.8984-17.8137,12.5692l-20.0985-3.4491c6.5892-24.6875,35.4192-29.799,56.3864-24.0304,11.7737,3.2393,20.805,13.2823,20.9828,26.1504l.8702,62.9533-21.0733-.043-1.7306-11.7625c-8.2743,10.7536-20.6226,14.9488-34.175,13.0049-16.3174-2.3405-29.2114-17.1409-24.3826-34.3392ZM988.6995,968.0861c1.4462-4.4941.8081-8.8678.8325-13.474l-22.6196,1.4347c-2.6484.168-7.4037,2.6474-9.238,4.7341-4.4349,5.045-3.4283,14.57,2.7098,17.9871,9.9933,5.5633,24.6538.6963,28.3153-10.682Z"/>
      <path class="cls-1" d="M608.3203,966.1279l16.9483,7.8093c-7.4979,15.3958-21.8245,23.1312-38.0576,23.7131-17.7349.6358-33.836-8.2264-42.2856-22.4657-9.41-15.8578-8.6198-34.3514,1.402-49.7259,8.5586-13.1298,22.0944-20.1008,37.7784-20.4351,19.5798-.4173,35.9807,11.2117,41.5552,30.2689,1.9696,6.7333,2.2414,14.1727,2.096,21.777l-64.8296-.3669c.124,11.0859,8.0872,19.9995,17.3806,22.0574,11.7495,2.6017,21.5965-1.2157,28.0122-12.6321ZM604.5297,943.3014c.2075-5.9536-2.7549-12.9378-6.9173-16.4082-5.6233-4.6884-12.5626-5.3894-19.5013-3.4299-8.7133,2.4606-14.6529,11.3731-15.6113,20.0823l42.0299-.2442Z"/>
      <path class="cls-1" d="M762.8873,994.3723c-14.7905,5.5365-29.6887,4.326-43.2509-4.1756-26.3992-16.5486-27.5932-53.2864-7.4249-72.9141,10.7144-10.4272,25.2621-13.3498,39.7924-11.8065,22.2773,2.366,39.3948,19.4011,40.5942,41.9474,1.0913,20.5129-10.0935,39.6055-29.7109,46.9489ZM765.7005,965.2316c5.8423-13.923,3.0883-33.7553-11.2502-39.8228-7.7035-3.2598-15.2895-2.7135-21.3409,1.4386-12.1701,8.3504-12.506,28.1059-7.2477,39.4172,3.8672,8.319,11.4564,12.8711,20.2123,12.7883,8.2739-.0782,15.9846-5.1424,19.6265-13.8214Z"/>
      <path class="cls-4" d="M1072.7961,923.8871c-6.7686.5478-16.8605,5.9907-16.9141,13.5129l-.4176,58.618-24.0009-.0284.1186-88.4464,22.356-.127.3028,13.1697c7.2701-10.7505,16.6233-15.5415,28.8222-15.6667,19.7773-.203,30.8476,14.1583,30.8667,32.293l.0623,58.9723-23.6468-.0194-.0471-55.8815c-.0082-9.6707-6.5051-17.2866-17.5021-16.3966Z"/>
      <path class="cls-3" d="M725.5046,1137.4431l-9.7941.2578-.4536-7.0427-42.4684-.0563-.6757,7.3443-9.3288-.2314.2922-75.9482-18.4778.0646c-1.0453-2.1962-1.048-7.0089.052-9.1492l18.5694-.0007-.1521-17.8339,10.183-.1167-.0693,18.0979,41.7833.0298.2549-18.3909,10.6198.0847-.6011,18.0262,19.573-.1795-.1385,9.5135-19.0805-.0011-.0878,75.5317ZM715.0213,1086.009l.0546-24.1515-41.5675.017-.4261,24.2554,41.9389-.1209ZM715.1586,1120.749l-.097-26.3551-41.9011.2125-.0859,26.3132,42.0839-.1706Z"/>
      <path class="cls-4" d="M1241.1216,977.4151l1.9953,15.9742c-8.8846,4.6651-20.1905,5.1555-29.9913,1.1682-8.9709-3.6497-14.6896-12.4541-14.7094-22.2374l-.0968-47.8724-12.732-.2277.2148-16.9352,12.6338.1416.3322-24.4348,22.3453-.0499-.023,24.4402,20.9219-.1573-.4066,17.3767-20.2914-.0573.2838,42.6217c.0264,3.9582.3304,9.0449,4.8797,10.6738,4.0341,1.4445,9.2391.4836,14.6437-.4243Z"/>
      <path class="cls-4" d="M1178.5098,977.3868l1.7456,16.559c-8.6962,3.903-18.2965,4.4368-27.1726,1.5703-10.227-3.3028-16.4228-12.4599-16.4515-23.1922l-.127-47.4436-13.0484-.4353-.2752-17.0527,13.1183.0142.2772-24.4177,22.522-.0675-.0835,24.6317,19.1242-.0846-.073,16.776-18.8611.3516.0174,45.0265c.0018,4.7718,3.2938,9.0337,8.2481,9.1651,3.3378.0885,6.2715-.5308,11.0396-1.4007Z"/>
      <path class="cls-1" d="M417.1901,1130.689c11.3831-3.3628,21.6576-6.3768,31.2493-12.5649,13.9822-9.0207,16.4213-17.6926,16.849-34.515l-35.9195-.0374-.0961-8.1451,70.0099.0854-.3084-10.6781-65.3911-.0203c-.3763-2.1557-.5386-4.6169-.5705-7.2941l66.0647.0511.1544-10.3554-70.5043-.113c-.2066-2.9799-.1798-5.5686.0928-8.1348l80.6946.0496-.2272,44.8504-34.7426-.243c.0215,4.9361-.7926,9.7163.0793,13.8946,3.7159,17.8088,29.3877,28.0219,46.8805,31.2774l-4.718,9.2797c-19.6605-5.754-34.4643-10.6207-47.0314-28.3786-10.4825,18.4356-28.867,23.8075-47.7205,29.3414l-4.8451-8.35Z"/>
      <path class="cls-3" d="M951.0231,1132.3064l-28.4742.2804-41.8314.0036-.1242,4.8795-9.036-.0743-.3268-98.8571,90.0809.2596.0123,98.6032-9.5402.7046-.7605-5.7993ZM951.4669,1124.4396l.2691-77.5978-70.9789.0609.0171,77.1205,70.6927.4164Z"/>
      <path class="cls-1" d="M664.6901,996.1443l-23.733-.0893.1224-88.225,22.6141-.503.3458,16.4563c5.2148-12.5045,16.9878-20.1582,30.8919-17.9467l-2.368,21.2758c-11.5739-1.7125-25.6202,4.7928-26.9222,17.2338-1.8159,17.3512-.306,34.0513-.951,51.7981Z"/>
      <path class="cls-1" d="M630.9273,1135.1898l-25.1326-.0234c-11.4655-.0107-22.6031-.3874-33.9197-1.5304-10.7683-1.0876-19.5935-6.4623-26.6373-15.3826-2.2273,7.5135-4.5495,14.2505-8.383,21.0639l-6.7935-4.1484c7.5052-15.0822,10.7717-30.5231,9.6771-48.0899l8.3158-.2594-.0934,19.3158c-.0167,3.4492,4.2797,7.8617,7.3687,10.5083l.212-36.3173-21.6428-.5159-.1166-8.112,20.6215.0654-.263-13.9243-16.9374-.0052-.298-8.5669,17.3174.3688-.1799-15.1506,8.978.0984-.5054,15.2951,13.4922-.0464-.0176,8.0363-12.8886-.0038-.7048,13.761,14.4803.1847-.3394,8.1935-12.218-.1507-.4034,15.7917,11.0182-.3958c1.2965.3026,1.7729,4.4741,1.035,5.6809-.7265,1.1882-3.1889,2.1322-4.8937,2.2727l-6.8353.5632.3253,19.5566c15.1741,1.9595,29.2873,2.842,44.3211,2.6194l25.5988-.3791-3.5581,9.6261Z"/>
      <path class="cls-3" d="M814.3324,1136.7616l-3.1798-8.8745,14.2771-.0964c2.9915-.0202,5.0816-2.1661,5.0787-5.3167l-.0227-24.3066-35.3664.3266c-1.7053-1.5123-1.525-5.854-.0864-7.991l35.6373.0089.3036-7.8571c.0498-1.2877,1.356-3.2928,2.5636-4.9842l-41.2521-.077c-.9795-2.0756-.832-6.6093.7723-8.2411l25.3069.3286.2019-13.2104-20.2667-.5702c-.7376-2.1727-.7819-5.7797-.1256-8.027l20.0696.2514-.0668-13.847,9.2276-.0956-.4425,14.1448,22.4706-.3636.0441,8.3304-22.2838-.0187-.0164,13.2618,28.2347.0504.0548,7.9465-15.7396.2238.0177,12.7529,13.7347-.2254-.1277,7.867-13.5368.1647.0703,27.2578c.0144,5.6034-3.8388,10.9214-9.8668,10.995l-15.6854.1917Z"/>
      <path class="cls-1" d="M629.9293,1113.5c-1.6595,5.3644-7.044,6.9248-11.3577,4.5343-4.6764-2.5916-7.9258-7.1265-9.7456-12.4378l-15.8754,16.0603c-2.421-1.0496-5.0517-3.1578-6.3958-4.7432,7.7763-5.6771,13.7083-12.1683,19.6032-19.6263-3.2128-12.2655-4.942-22.9954-5.727-36.2057l-11.6168-.1893-.5005,36.0614,10.02-6.5813c.6572.8225,1.1628,6.2624-.3224,7.6285-4.3795,4.0284-10.5056,10.0229-15.9838,11.6139-5.2137,1.5141-1.754-5.3565-1.7209-7.7927l.6684-49.2011,19.0946.1072-.5424-18.2976,7.8117-.125,1.1393,18.3191,22.6814-.2883-.2586,8.8048-22.2313-.1879,3.2418,26.5565c4.5027-6.8059,6.6249-12.6346,9.2243-20.9099l6.7137,1.301c-3.0203,11.0727-6.8348,20.2372-13.3919,30.2098-.521,2.0507,7.506,18.0711,9.2553,10.9116l3.3243-13.6056,5.4696,1.343c-.2825,5.6154-.8564,11.1769-2.5775,16.7405Z"/>
      <path class="cls-3" d="M773.8342,1100.8375l-17.1021,5.9173-3.1194-8.7625,20.405-6.3284-.3184-24.434c-1.6872-.773-5.7838-.941-7.5892-.1717l-5.173,16.8381c-1.7899,1.3249-6.6135-1.3855-5.9806-3.5925,3.4555-12.0491,4.7383-23.3044,5.7534-36.008,1.8148-.7168,5.3659-.3521,7.4431.4741l-.8938,13.5409,6.4504.4543-.0534-24.3794,8.7447.3345.181,23.5918,9.7964.2205c.1587,1.6618.0835,5.7101-.1676,7.8214l-9.8149.4787-.4557,22.1976,10.8515-2.8488c.6873,7.0876-4.8039,11.0966-10.3249,12.5532l.391,39.2557-9.0355-.0977.0119-37.0554Z"/>
      <path class="cls-1" d="M493.0554,1112.3029c-2.5098-1.3177-4.8406-3.3386-6.4491-5.358l17.7416-18.5708,7.4313,4.3383-18.7238,19.5905Z"/>
      <polygon class="cls-1" points="445.1884 1112.0673 428.2024 1092.5054 434.9908 1089.2329 451.8893 1105.9381 445.1884 1112.0673"/>
      <path class="cls-3" d="M818.3956,1116.0319c-.8874,3.0053-3.6727,5.008-6.6447,6.3595l-13.9285-17.446c.7271-1.6817,5.1823-4.3482,6.4038-3.1232l14.1693,14.2097Z"/>
      <polygon class="cls-1" points="622.9636 1051.6894 612.199 1038.2169 616.8558 1034.1164 628.8912 1047.0204 622.9636 1051.6894"/>
      <path class="cls-3" d="M945.0008,1093.7259l-28.1739-10.6766c-10.3238,5.0647-20.1192,8.9149-31.1332,11.9157l-4.4025-6.2738,29.3688-10.3774-12.2007-9.819c-3.9548,1.0485-6.5531,6.2433-9.5936,6.4814-1.3572.1063-3.518-2.0979-4.824-3.5351,8.1078-6.3827,14.8587-12.9324,20.1994-22.4852l7.3654,1.4929-3.8072,6.1195,35.3934.2553c2.0753,8.9745-13.1671,16.645-18.5339,21.9675l25.5226,8.4056c-.3715,1.7277-2.8757,5.0802-5.1807,6.5294ZM916.7336,1074.5304c6.3458-2.7819,11.3579-6.5225,15.5891-11.6276l-28.4611.6267c3.6008,4.9107,7.8684,8.4345,12.872,11.0009Z"/>
      <path class="cls-3" d="M936.6077,1121.0652l-19.0156-5.077c-8.6619-2.3127-16.4466-4.1353-25.4739-5.9431.7134-1.7145,2.0009-4.2661,2.9878-5.1919s4.3416-.8616,5.7766-.5182l38.5082,9.2139-2.7831,7.5163Z"/>
      <path class="cls-3" d="M930.3838,1103.5768l-29.0123-7.4642,4.5913-6.0109c9.3596,2.0211,17.9592,4.1724,27.08,7.3463.068,2.1612-1.2411,4.7688-2.659,6.1287Z"/>
    </g>
  </g>
  <g id="_图层_2" data-name="图层 2">
    <path class="cls-2" d="M1432.685,833.5766v259.6447c-34.0392,16.3024-70.7078,28.3022-109.9103,36.0471-39.2504,7.7927-84.7633,11.6651-136.5872,11.6651h-427.546v-307.3569h187.1202c5.737,17.7365,13.5773,34.5172,23.3781,50.3416,24.0472,38.8678,56.2218,67.17,96.5717,84.9547,40.3977,17.7844,83.8552,26.629,130.4679,26.629,31.0751,0,58.469-1.0998,82.1818-3.2988v-158.6266h154.3237Z"/>
    <path class="cls-2" d="M1196.1795,995.502c-46.6127,0-90.0702-8.8446-130.4679-26.629-40.3499-17.7847-72.5245-46.0869-96.5717-84.9547-9.8009-15.8244-17.6411-32.605-23.3781-50.3416h332.5996v158.6266c-23.7128,2.199-51.1067,3.2988-82.1818,3.2988Z"/>
    <path class="cls-2" d="M1432.685,1093.2213v47.7122h-246.4975c51.8239,0,97.3368-3.8724,136.5872-11.6651,39.2025-7.7449,75.8711-19.7447,109.9103-36.0471Z"/>
    <path class="cls-2" d="M1278.3613,1140.1684v15.49l-527.3689,8.8922,2.6294-330.974h189.5106c5.8803,18.7406,14.0077,36.4296,24.3341,53.1145,24.1908,39.059,56.5568,67.5047,97.0978,85.3848,40.5413,17.8323,84.2375,26.7723,131.0895,26.7723,31.2663,0,58.8037-1.0995,82.6119-3.3463l.0957,144.6665Z"/>
    <path class="cls-2" d="M1278.2656,995.502c-23.8082,2.2468-51.3456,3.3463-82.6119,3.3463-46.852,0-90.5482-8.9401-131.0895-26.7723-40.541-17.8801-72.907-46.3259-97.0978-85.3848-10.3264-16.6849-18.4538-34.3739-24.3341-53.1145h2.6294l332.5039,161.9253Z"/>
  </g>
  <g id="_图层_4" data-name="图层 4">
    <path class="cls-1" d="M1190.1078,684.1769v139.4556h88.1578v171.8695l.0957,144.6665c15.633-1.7689,30.5015-4.0636,44.5091-6.8365,39.4415-7.8403,76.2537-19.888,110.484-36.286v-412.869h-243.2466Z"/>
    <path class="cls-4" d="M1411.0282,511.2077v-133.9097c-28.9716-11.9044-64.5407-21.944-106.564-30.1192-42.023-8.175-83.5203-12.2864-124.396-12.2864-84.0942,0-158.6744,18.0234-223.7409,54.1183-65.1143,36.0952-116.0777,85.5763-152.8899,148.3959-36.8118,62.9151-55.2659,134.4836-55.2659,214.8487,0,28.4458,2.3904,55.5049,7.1712,81.3213h187.7896c-7.9363-25.1949-11.9041-52.3019-11.9041-81.3213,0-93.7515,24.9077-163.6942,74.7235-209.8289,49.8639-46.0869,114.9782-69.1782,195.2954-69.1782,64.7318,0,134.6269,12.6692,209.7811,37.9595Z"/>
  </g>
</svg>