<?xml version="1.0" encoding="UTF-8"?>
<svg id="_图层_1" data-name="图层 1" xmlns="http://www.w3.org/2000/svg" viewBox="0 0 60.71 66.16">
  <defs>
    <style>
      .cls-1 {
        fill: #d2d7da;
      }

      .cls-2 {
        isolation: isolate;
      }

      .cls-3 {
        fill: #fff;
      }

      .cls-4 {
        fill: #e9573f;
      }
    </style>
  </defs>
  <path class="cls-3" d="M7.59.39h50.59c1.4,0,2.53,1.13,2.53,2.53v60.71c0,1.4-1.13,2.53-2.53,2.53H7.59c-1.4,0-2.53-1.13-2.53-2.53V2.92c0-1.4,1.13-2.53,2.53-2.53Z"/>
  <path class="cls-1" d="M60.71,2.92L45.53.39v15.18l15.18-12.65Z"/>
  <path class="cls-3" d="M45.53.39h12.65c1.4,0,2.53,1.13,2.53,2.53v12.65h-15.18V.39Z"/>
  <path class="cls-1" d="M45.53,15.56l15.18,15.18v-15.18h-15.18Z"/>
  <rect class="cls-4" y="24.42" width="50.59" height="27.83" rx="8" ry="8"/>
  <g class="cls-2">
    <path class="cls-3" d="M11.87,32.62h4.88c1.06,0,1.86.25,2.39.76.53.51.79,1.23.79,2.16s-.29,1.71-.87,2.25c-.58.54-1.46.81-2.64.81h-1.61v3.53h-2.95v-9.51ZM14.82,36.67h.72c.57,0,.96-.1,1.19-.29.23-.2.34-.45.34-.75s-.1-.55-.3-.76c-.2-.21-.57-.31-1.12-.31h-.84v2.12Z"/>
    <path class="cls-3" d="M21.51,32.62h4.36c.86,0,1.56.12,2.08.35.53.23.97.57,1.31,1,.35.44.6.94.75,1.52.16.58.23,1.19.23,1.84,0,1.02-.12,1.8-.35,2.36s-.55,1.03-.96,1.41c-.41.38-.85.63-1.32.75-.64.17-1.23.26-1.75.26h-4.36v-9.51ZM24.45,34.77v5.19h.72c.61,0,1.05-.07,1.31-.2.26-.14.46-.37.61-.71.15-.34.22-.89.22-1.65,0-1.01-.16-1.7-.49-2.07-.33-.37-.87-.56-1.63-.56h-.73Z"/>
    <path class="cls-3" d="M31.81,32.62h7.26v2.04h-4.31v1.66h3.68v1.92h-3.68v3.88h-2.95v-9.51Z"/>
  </g>
</svg>