<?xml version="1.0" encoding="UTF-8"?>
<svg id="_图层_1" data-name="图层 1" xmlns="http://www.w3.org/2000/svg" viewBox="0 0 60 66.22">
  <defs>
    <style>
      .cls-1 {
        fill: #4caf72;
      }

      .cls-2 {
        fill: #00a651;
      }

      .cls-3 {
        fill: #8bc34a;
      }

      .cls-4 {
        isolation: isolate;
      }

      .cls-5 {
        fill: #fff;
      }

      .cls-6 {
        fill: #a5d6a7;
      }
    </style>
  </defs>
  <path class="cls-1" d="M12.86,0h34.29c3.79,0,6.86,2.22,6.86,4.97v56.29c0,2.74-3.07,4.97-6.86,4.97H12.86c-3.79,0-6.86-2.22-6.86-4.97V4.97c0-2.74,3.07-4.97,6.86-4.97Z"/>
  <path class="cls-3" d="M53.59,4.97L36.6,0v4.97h17Z"/>
  <path class="cls-6" d="M13.5,9.05h13c.83,0,1.5.67,1.5,1.5h0c0,.83-.67,1.5-1.5,1.5h-13c-.83,0-1.5-.67-1.5-1.5h0c0-.83.67-1.5,1.5-1.5Z"/>
  <path class="cls-6" d="M13.5,17.05h27c.83,0,1.5.67,1.5,1.5h0c0,.83-.67,1.5-1.5,1.5H13.5c-.83,0-1.5-.67-1.5-1.5h0c0-.83.67-1.5,1.5-1.5Z"/>
  <path class="cls-6" d="M13.5,25.05h27c.83,0,1.5.67,1.5,1.5h0c0,.83-.67,1.5-1.5,1.5H13.5c-.83,0-1.5-.67-1.5-1.5h0c0-.83.67-1.5,1.5-1.5Z"/>
  <rect class="cls-2" y="33.05" width="60" height="23"/>
  <path class="cls-2" d="M0,56.05l6,7v-7H0Z"/>
  <path class="cls-2" d="M60,56.05l-6,7v-7h6Z"/>
  <g class="cls-4">
    <path class="cls-5" d="M6.83,38.6h3.9l2.03,3.52,1.97-3.52h3.86l-3.56,5.55,3.9,5.91h-3.98l-2.26-3.68-2.26,3.68h-3.95l3.95-5.97-3.59-5.48Z"/>
    <path class="cls-5" d="M20.06,38.6h3.54v8.63h5.52v2.82h-9.06v-11.45Z"/>
    <path class="cls-5" d="M30.11,46.26l3.37-.21c.07.55.22.96.45,1.25.36.46.89.7,1.56.7.5,0,.89-.12,1.17-.36s.41-.51.41-.82-.13-.56-.39-.8c-.26-.23-.86-.46-1.81-.66-1.55-.35-2.66-.81-3.32-1.39-.67-.58-1-1.32-1-2.21,0-.59.17-1.14.51-1.67.34-.52.85-.93,1.54-1.23.68-.3,1.62-.45,2.82-.45,1.46,0,2.58.27,3.35.82.77.54,1.23,1.41,1.37,2.6l-3.34.2c-.09-.52-.27-.89-.56-1.12-.28-.23-.68-.35-1.18-.35-.41,0-.72.09-.93.26-.21.17-.31.39-.31.64,0,.18.09.35.26.49.17.15.56.29,1.19.42,1.55.33,2.65.67,3.32,1.01.67.34,1.16.76,1.46,1.27s.46,1.07.46,1.7c0,.73-.2,1.41-.61,2.03s-.97,1.09-1.7,1.41c-.73.32-1.65.48-2.76.48-1.95,0-3.3-.38-4.05-1.12s-1.17-1.7-1.27-2.86Z"/>
    <path class="cls-5" d="M41.5,38.6h3.9l2.03,3.52,1.97-3.52h3.86l-3.56,5.55,3.9,5.91h-3.98l-2.26-3.68-2.26,3.68h-3.95l3.95-5.97-3.59-5.48Z"/>
  </g>
</svg>